<?xml version="1.0" encoding="iso-8859-1"?>
<!-- Uploaded to: SVG Repo, www.svgrepo.com, Generator: SVG Repo Mixer Tools -->
<svg fill="#000000" height="800px" width="800px" version="1.1" id="Layer_1" xmlns="http://www.w3.org/2000/svg" xmlns:xlink="http://www.w3.org/1999/xlink" 
	 viewBox="0 0 512 512" xml:space="preserve">
<g>
	<g>
		<path d="M490.7,128V64c0-11.8-9.5-21.3-21.3-21.3H384c-11.8,0-21.3,9.6-21.3,21.3v64c-11.8,0-21.3,9.6-21.3,21.3v85.3
			c0,11.8,9.5,21.3,21.3,21.3h42.7v64c0,28.5-8.2,55.1-22.1,77.8c0.5-4.5,0.8-9.1,0.8-13.8c0-70.6-57.4-128-128-128
			s-128,57.4-128,128c0,4.7,0.3,9.3,0.8,13.8c-13.9-22.7-22.1-49.3-22.1-77.8V213.3h42.7c11.8,0,21.3-9.6,21.3-21.3v-85.3
			c0-11.8-9.5-21.3-21.3-21.3v-64C149.3,9.6,139.8,0,128,0H42.7C30.9,0,21.3,9.6,21.3,21.3v64C9.5,85.3,0,94.9,0,106.7V192
			c0,11.8,9.5,21.3,21.3,21.3H64V320c0,101.4,79.1,184.6,178.9,191.3c4.3,0.4,8.7,0.7,13.1,0.7s8.8-0.2,13.1-0.7
			C368.9,504.6,448,421.4,448,320v-64h42.7c11.8,0,21.3-9.6,21.3-21.3v-85.3C512,137.6,502.5,128,490.7,128z M106.7,85.4H64V42.7
			h42.7V85.4z M256,469.3c-47.1,0-85.3-38.3-85.3-85.3s38.3-85.3,85.3-85.3s85.3,38.3,85.3,85.3S303.1,469.3,256,469.3z M448,128
			h-42.7V85.3H448V128z"/>
	</g>
</g>
</svg>